<?xml version="1.0" encoding="utf-8"?>
<!DOCTYPE svg PUBLIC "-//W3C//DTD SVG 20010904//EN" "http://www.w3.org/TR/2001/REC-SVG-20010904/DTD/svg10.dtd">
<svg version="1.0" xmlns="http://www.w3.org/2000/svg" width="794px" height="794px" viewBox="0 0 794 794" preserveAspectRatio="xMidYMid meet">
 <g fill="#ffffff">
  <path d="M467.6 671.6 c0.4 -1 -0.8 -28.3 -2.7 -60.8 -2.6 -46.1 -3.7 -59.4 -4.8 -60.5 -1.2 -1.2 -0.6 -1.4 4.5 -1.3 3.3 0.1 7.7 -0.2 9.9 -0.6 3.3 -0.6 3.8 -0.4 2.9 0.7 -1.4 1.7 5 118.4 6.6 121.2 1 1.6 0.6 1.8 -3.7 1.7 -2.6 -0.1 -6.7 0.2 -9.1 0.6 -3.7 0.6 -4.2 0.5 -3.6 -1z"/>
  <path d="M381.9 665.6 c2 -2.4 1.1 -111.7 -1 -114.2 -1.3 -1.5 -1.1 -1.6 2.6 -1 5 0.9 7 0.9 12 0 3.5 -0.6 3.8 -0.5 2.7 0.9 -1.7 2 -0.5 112.8 1.2 114 0.6 0.4 -1.6 0.7 -4.9 0.7 -3.3 -0.1 -7.8 0.2 -10 0.6 -3.6 0.6 -3.8 0.5 -2.6 -1z"/>
  <path d="M393 530.5 c-1.6 -0.9 -4 -1.2 -6.7 -0.8 -2.7 0.4 -4.3 0.2 -4.3 -0.5 0 -0.6 0.4 -1.2 0.9 -1.4 1.2 -0.4 14.4 -108.5 13.7 -112.5 -0.4 -2.9 -0.2 -3.3 1.7 -3.3 1.2 0.1 3.3 0.7 4.7 1.5 1.7 0.9 4.2 1.2 7.5 0.8 4.8 -0.6 4.9 -0.5 3.4 1.3 -1.3 1.5 -3.2 14.5 -8.4 56.4 -3.6 29.9 -6.4 55.7 -6.1 57.2 0.5 2.4 0.2 2.8 -1.7 2.8 -1.2 -0.1 -3.3 -0.7 -4.7 -1.5z"/>
  <path d="M471.1 528.1 c-0.8 -0.5 -3.9 -0.7 -7 -0.4 -3.1 0.2 -5.1 0.1 -4.5 -0.4 0.8 -0.5 1.3 -12 1.8 -35.8 1.1 -63.6 1.1 -75.6 -0.5 -76.7 -0.9 -0.6 0.1 -0.7 3.1 -0.3 2.5 0.3 6.9 0.5 9.9 0.4 4.4 0 5.2 0.2 4.4 1.3 -1.6 2 -2.9 109.4 -1.3 111.3 1.1 1.3 0.8 1.5 -1.6 1.5 -1.6 0 -3.5 -0.4 -4.3 -0.9z"/>
  <path d="M418 405 c0 -2.6 -2.3 -7.2 -4.4 -8.9 -2.8 -2.4 -1.8 -4.5 3 -6.5 2.5 -1 5.1 -2.7 5.7 -3.7 1.7 -2.7 2.4 -2.4 3.1 1.5 0.4 1.9 2 4.9 3.6 6.6 3.3 3.5 3.9 6 1.5 6 -2.5 0 -9.2 3.7 -9.8 5.5 -0.9 2.2 -2.7 1.9 -2.7 -0.5z"/>
  <path d="M455.9 406.2 c-0.5 -1.2 -10.4 -6.2 -12.4 -6.2 -2.4 0 -1.8 -2.9 1.5 -6.7 1.9 -2.1 3 -4.5 3 -6.3 0 -2 0.5 -3 1.5 -3 0.8 0 1.5 0.6 1.5 1.4 0 0.7 2.9 2.6 6.5 4.2 6.7 3 7.6 4.5 4.9 7.5 -0.9 1 -2.2 3.5 -2.9 5.5 -1.3 3.8 -3 5.4 -3.6 3.6z"/>
  <path d="M523 388 c-0.8 -0.5 -3.6 -0.7 -6.2 -0.4 -3.1 0.4 -4.8 0.3 -4.8 -0.4 0 -0.6 0.6 -1.2 1.3 -1.4 0.8 -0.3 1.2 -2.5 1.2 -6.1 0 -6.2 1.1 -7 5.8 -4.5 1.2 0.6 4.3 1 7.1 0.9 4.2 -0.1 4.7 0.1 3.7 1.3 -0.7 0.8 -1.3 3.7 -1.4 6.5 -0.2 4.7 -0.4 5.1 -2.7 5.1 -1.4 0 -3.2 -0.5 -4 -1z"/>
  <path d="M427.9 376.6 c1.9 -2.3 3 -75.8 1.2 -78 -0.9 -1.1 0.4 -1.3 8.4 -1.3 6.9 0 9.3 0.3 8.6 1.1 -0.4 0.6 -1.2 17.9 -1.6 38.4 -0.5 29.1 -0.4 37.6 0.6 38.8 1.1 1.3 0.5 1.5 -4.7 1.4 -3.2 -0.1 -7.7 0.2 -9.9 0.6 -3.7 0.6 -3.9 0.5 -2.6 -1z"/>
  <path d="M528 355 c-0.8 -0.5 -3.6 -1 -6.3 -1 -4.2 0 -4.6 -0.2 -3.7 -1.7 1.2 -2.4 9.3 -63.1 8.5 -65 -0.4 -1.3 0.2 -1.4 3.2 -0.9 2.1 0.4 6.2 1 9.2 1.3 3 0.3 4.9 0.8 4.2 1.2 -1.6 1 -10.1 64.2 -8.8 65.9 0.7 0.9 0.2 1.2 -1.9 1.2 -1.6 0 -3.6 -0.5 -4.4 -1z"/>
  <path d="M428.9 275.6 c0.5 -0.6 1.2 -17.9 1.6 -38.4 0.6 -33.5 0.5 -37.5 -0.9 -39.1 -1.5 -1.7 -2.4 -1.6 -20 1.8 -13.4 2.6 -19 4.1 -20.7 5.6 -2.2 2 -2.2 2 -1.6 -3 0.4 -3.3 0.1 -5.8 -0.8 -7.5 -1.9 -3.3 -1.9 -7.1 -0.2 -6.4 1.8 0.6 37.8 -6.5 39.5 -7.8 0.9 -0.8 1.2 0 1.2 3.4 0 2.4 0.7 5.3 1.5 6.4 0.8 1 1.5 2.9 1.5 4 0 1.7 0.8 2.2 4.2 2.7 6.8 0.9 10.9 -0.9 13.6 -6 1.2 -2.3 2.2 -5.6 2.2 -7.3 0 -2.8 1.4 -4.2 2.2 -2.1 0.6 1.7 31.2 10 32.6 8.9 2 -1.7 1.5 2.7 -0.8 6.4 -1.1 1.8 -2 5 -2 7.1 0 3.4 -1.4 5.1 -2.2 2.7 -0.5 -1.6 -32 -10.2 -33.1 -9.1 -1.5 1.5 -2.3 75.7 -0.8 77.4 0.9 1.2 -0.4 1.4 -8.4 1.4 -6.6 0 -9.2 -0.4 -8.6 -1.1z"/>
  <path d="M523.3 270.6 c0 -1.8 -30.3 -54.6 -31.4 -54.6 -2.3 0 -0.4 -1.7 3.7 -3.4 2.5 -1 5.1 -2.7 5.7 -3.7 1.3 -2.1 4.7 -2.6 4.7 -0.6 0 2 28.9 52 31.3 54 1.7 1.5 1.9 2 0.6 2.8 -0.7 0.5 -2.2 0.9 -3.1 0.9 -1 0 -3.3 1.4 -5.1 3 -3.7 3.2 -6.4 3.9 -6.4 1.6z"/>
  <path d="M326.5 253.1 c-1.4 -1.3 -25.6 -8.5 -28.2 -8.4 -2.9 0.1 -3.1 -2.9 -0.3 -6.4 1.3 -1.7 2 -4.1 2 -6.9 0 -4.7 0.6 -5.4 2.4 -2.9 1.3 1.8 27.2 9.9 29.2 9.1 2 -0.8 1.8 3.3 -0.3 5.6 -0.9 1 -2.1 3.8 -2.8 6.3 -0.7 2.8 -1.5 4.2 -2 3.6z"/>
  <path d="M347.6 242.4 c-1.6 -1.9 -4.2 -3.8 -5.7 -4.1 -3 -0.6 -3.9 -2.7 -1.6 -3.6 1.5 -0.5 22.7 -29.3 22.7 -30.7 0 -2.1 3.4 -0.9 7.1 2.5 2.2 1.9 4.8 3.5 5.9 3.5 1.1 0 2 0.7 2 1.5 0 0.8 -0.6 1.5 -1.4 1.5 -1.7 0 -23 28.9 -23 31.3 0 2.7 -2.9 1.9 -6 -1.9z"/>
  <path d="M275 236.2 c0 -1.1 -6.6 -4.2 -9 -4.2 -2.7 0 -2.5 -2.6 0.5 -6.1 1.3 -1.6 2.7 -4.5 3.1 -6.4 0.6 -3.1 2.4 -5 2.4 -2.5 0 1.2 7.9 4.6 9.8 4.2 2 -0.5 1.4 2.8 -1.3 5.9 -1.3 1.6 -2.7 4.5 -3.1 6.4 -0.3 1.9 -1 3.5 -1.5 3.5 -0.5 0 -0.9 -0.4 -0.9 -0.8z"/>
  <path d="M429.8 175.9 c0.7 -0.7 1.2 -3.9 1.2 -7.4 0 -3.5 -0.5 -6.7 -1.2 -7.4 -1.1 -1.1 -0.6 -1.2 2.7 -0.6 2.2 0.4 6.7 0.6 10 0.5 4.8 -0.1 5.8 0.1 4.8 1.1 -0.8 0.8 -1.3 3.8 -1.3 6.9 0 3.1 0.6 6.2 1.3 6.9 1 1.1 0.4 1.2 -3.3 0.7 -2.5 -0.4 -4.9 -0.7 -5.5 -0.7 -0.5 0 -3 0.3 -5.5 0.7 -3.7 0.5 -4.3 0.4 -3.2 -0.7z"/>
  <path d="M430.8 139.9 c0.7 -0.8 1.2 -4.2 1.2 -9 0 -5.3 -0.4 -7.9 -1.2 -8.2 -0.7 -0.2 2.8 -0.4 7.7 -0.4 9 0 9 0 8.7 7.9 -0.3 5.5 0 8.4 1 9.5 1.2 1.5 0.9 1.6 -3.2 0.9 -5.2 -0.9 -6.1 -0.9 -11.5 0 -3.3 0.5 -3.8 0.4 -2.7 -0.7z"/>
 </g>
 <g fill="#505050">
  <path d="M469.7 694.8 c-4.8 -2.8 -8.2 -9.4 -7.3 -14.2 1.5 -8 9.3 -13.6 16.9 -12.2 4.4 0.8 10.3 7.1 11.2 12 1.5 7.5 -6.4 16.6 -14.1 16.6 -1.6 0 -4.6 -1 -6.7 -2.2z"/>
  <path d="M386.3 689.9 c-1.7 -0.5 -4.6 -2.6 -6.2 -4.6 -2.6 -3.2 -3.1 -4.6 -3.1 -9.2 0 -5 0.3 -5.6 4.5 -9.9 4.4 -4.4 4.6 -4.4 10 -4 4.5 0.4 6 1 8.5 3.7 5.5 5.6 6.3 10.9 2.9 17.1 -3.4 5.9 -10.2 8.8 -16.6 6.9z"/>
  <path d="M381 551.4 c-7.4 -6.7 -7.4 -15.4 0.2 -21.9 7.1 -6 15.4 -4.4 20.3 3.8 3 5.3 3.2 8.8 0.4 13.6 -2.8 5.1 -7.6 8.1 -12.7 8.1 -3.4 0 -4.9 -0.7 -8.2 -3.6z"/>
  <path d="M463 552.3 c-2.9 -1.1 -8 -7.5 -8.6 -11 -1.6 -8.6 4.3 -16.4 13.1 -17.1 4.4 -0.4 5.5 -0.1 8.3 2.3 8.3 6.9 8.3 17 0.2 23.9 -3.1 2.6 -8.9 3.4 -13 1.9z"/>
  <path d="M464.5 417.9 c-12 -7.1 -11.4 -23.4 1 -26.9 6.1 -1.7 11.3 -0.2 15.4 4.5 5.1 5.8 4.1 14.5 -2.3 20.4 -2.9 2.8 -10.9 3.9 -14.1 2z"/>
  <path d="M399.4 416.1 c-4.3 -2.6 -7.8 -10.1 -7 -14.7 0.9 -4.5 5.8 -10 10.2 -11.4 7.1 -2.4 16.2 2.5 18 9.6 1.2 4.7 -0.6 9.7 -5.1 14.1 -3.7 3.8 -4.8 4.3 -8.6 4.3 -2.6 0 -5.7 -0.8 -7.5 -1.9z"/>
  <path d="M515.7 411.5 c-6.5 -2.3 -9.7 -6.5 -9.7 -13 0 -10.3 11.1 -17.6 20.3 -13.4 3.7 1.7 7.7 8.6 7.7 13.4 0 9.5 -9.4 16.2 -18.3 13z"/>
  <path d="M429.1 399.3 c-8.3 -4.4 -9.1 -14.6 -1.6 -22 3.9 -3.9 4.7 -4.3 9.3 -4.3 5.9 0 10.5 3.2 12.8 8.7 2.5 5.8 1.8 10.9 -2 15 -3 3.3 -3.9 3.7 -9.2 4 -4.3 0.3 -6.8 -0.1 -9.3 -1.4z"/>
  <path d="M518.8 378.7 c-3.5 -1.5 -7.6 -7.1 -8.4 -11.3 -0.9 -4.7 1.2 -9.9 5.4 -13.4 3.1 -2.5 4.5 -3 9.1 -3 4.8 0 5.7 0.3 8.7 3.5 7.1 7.6 6.1 17.2 -2.4 23 -4 2.7 -8.1 3.1 -12.4 1.2z"/>
  <path d="M432.4 300.6 c-3.8 -1.7 -8.2 -7.2 -9 -11.3 -0.9 -4.4 1.1 -9.4 5 -13.2 2.9 -2.8 4.2 -3.3 8.5 -3.4 12.2 -0.2 19 13.1 11.7 22.7 -2.8 3.8 -7.8 6.6 -11.3 6.6 -1 -0.1 -3.2 -0.7 -4.9 -1.4z"/>
  <path d="M531.7 290.6 c-6 -2.2 -10.2 -8.6 -9.4 -14.5 0.8 -5.9 1.2 -6.9 3.7 -9.6 5.9 -6.3 17.4 -4.8 22 2.8 1.3 2 2 5 2 8.1 0 4.3 -0.4 5.2 -4.2 9.1 -4.9 4.9 -8.7 6 -14.1 4.1z"/>
  <path d="M335 262.3 c-4.2 -1.5 -10 -9.4 -10 -13.5 0 -6.2 7.1 -13.4 13.5 -13.8 6.1 -0.4 7.6 0.1 11.1 3.3 3 2.7 3.6 4 4 8.7 0.4 4.4 0.1 6.1 -1.5 8.8 -3.7 5.7 -11.2 8.6 -17.1 6.5z"/>
  <path d="M285.5 247.3 c-3.8 -1 -7.8 -4.6 -9.7 -9.1 -3.5 -7.8 -0.5 -14.6 7.7 -17.7 8 -3.1 15.6 0.3 18.9 8.6 3.1 7.6 -1.4 15.4 -10.2 17.9 -2 0.5 -3.9 0.9 -4.2 0.9 -0.3 -0.1 -1.4 -0.4 -2.5 -0.6z"/>
  <path d="M252 232.2 c-5.3 -2.6 -8.3 -7.7 -7.8 -13.3 0.8 -7.9 6.2 -12.9 14 -12.9 6 0 10.5 3 13 8.6 3.3 7.6 0.5 14.8 -6.9 17.9 -4.6 2 -8 1.9 -12.3 -0.3z"/>
  <path d="M490.2 216 c-6.2 -1.4 -11.2 -8 -11.2 -14.5 0 -5.1 2.2 -8.7 7 -11.4 9.7 -5.4 21 0.9 21 11.8 0 6.4 -2.3 10.7 -6.9 13 -4.3 2.3 -4.9 2.3 -9.9 1.1z"/>
  <path d="M367.1 209.5 c-13.1 -11.9 3 -31.7 17.8 -22 2.1 1.4 4.3 3.7 5 5.1 4.3 9.5 -3.5 20.4 -14.8 20.4 -3.3 0 -4.9 -0.7 -8 -3.5z"/>
  <path d="M428.4 196.6 c-3.9 -3.9 -4.4 -4.8 -4.4 -9 0 -8.7 6.2 -15.1 14.7 -15.1 4.4 0 5.7 0.5 8.3 3 8.3 7.9 8 16.8 -0.7 22.8 -2.9 2 -5.1 2.7 -8.7 2.7 -4.4 0 -5.3 -0.4 -9.2 -4.4z"/>
  <path d="M431.2 162.5 c-8.4 -7 -8 -17.9 0.9 -24 3.3 -2.4 4.6 -2.7 8.6 -2.2 4 0.4 5.4 1.2 8.5 4.7 5.9 6.7 5.5 14 -1.1 20.3 -3.5 3.2 -4.6 3.7 -9 3.7 -3.8 0 -5.6 -0.6 -7.9 -2.5z"/>
  <path d="M431 123 c-6.8 -6.6 -7.4 -14.2 -1.9 -20.5 5.8 -6.6 15 -6.6 20.8 0 5.6 6.4 4.9 13.5 -1.8 20.3 -2.9 2.8 -3.9 3.2 -8.6 3.2 -4.7 0 -5.9 -0.4 -8.5 -3z"/>
 </g>
</svg>